<svg width="27.157mm" height="261.46mm" version="1.1" viewBox="0 0 27.157 261.46" xmlns="http://www.w3.org/2000/svg">
<g transform="translate(30.508 -37.44)" stroke-width=".26458">
<path d="m-22.75 42.499-0.60678-1.5593h-1.9967l-0.59972 1.5593h-0.64206l1.9685-5.0588h0.5715l1.9614 5.0588zm-1.3617-3.6477q-0.02117-0.05645-0.07056-0.20461-0.04939-0.14817-0.09878-0.30339-0.04233-0.16228-0.07056-0.24694-0.04939 0.21872-0.11289 0.43039-0.0635 0.20461-0.10583 0.32456l-0.5715 1.524h1.5946z"/>
<path d="m-20.055 38.654q0.69144 0 1.0231 0.30339t0.33161 0.96661v2.5753h-0.45156l-0.11994-0.53622h-0.02822q-0.24694 0.31044-0.52211 0.45861-0.26811 0.14817-0.74789 0.14817-0.51506 0-0.85372-0.26811-0.33867-0.27517-0.33867-0.85372 0-0.56444 0.4445-0.86783 0.4445-0.31044 1.3688-0.33867l0.64206-0.02117v-0.22578q0-0.47272-0.20461-0.65617-0.20461-0.18344-0.57856-0.18344-0.29633 0-0.56444 0.09172-0.26811 0.08467-0.50094 0.19756l-0.1905-0.46567q0.24694-0.13406 0.58561-0.22578 0.33867-0.09878 0.70556-0.09878zm0.18344 2.0179q-0.70556 0.02822-0.98072 0.22578-0.26811 0.19756-0.26811 0.55739 0 0.3175 0.1905 0.46567 0.19756 0.14817 0.50094 0.14817 0.47978 0 0.79728-0.26106 0.3175-0.26811 0.3175-0.81844v-0.33867z"/>
<path d="m-15.765 38.647q0.10583 0 0.22578 0.01411 0.127 0.0071 0.21872 0.02822l-0.07761 0.5715q-0.09172-0.02117-0.20461-0.03528-0.10583-0.01411-0.20461-0.01411-0.28928 0-0.54328 0.16228-0.254 0.15522-0.40922 0.4445-0.14817 0.28222-0.14817 0.66322v2.0179h-0.62089v-3.7818h0.508l0.07056 0.69144h0.02822q0.18344-0.31044 0.47272-0.53622t0.68439-0.22578z"/>
<path d="m-11.469 40.601q0 0.93839-0.47978 1.4534-0.47272 0.51506-1.2841 0.51506-0.50094 0-0.89606-0.22578-0.38806-0.23283-0.61383-0.67028-0.22578-0.4445-0.22578-1.0724 0-0.93839 0.47272-1.4464 0.47272-0.508 1.2841-0.508 0.51506 0 0.90311 0.23283 0.39511 0.22578 0.61383 0.66322 0.22578 0.43039 0.22578 1.0583zm-2.8575 0q0 0.67028 0.26106 1.0654 0.26811 0.38806 0.84667 0.38806 0.5715 0 0.83961-0.38806 0.26811-0.39511 0.26811-1.0654t-0.26811-1.0513q-0.26811-0.381-0.84667-0.381t-0.83961 0.381q-0.26106 0.381-0.26106 1.0513z"/>
<path d="m-8.6676 38.647q0.67733 0 1.0231 0.33161 0.34572 0.32456 0.34572 1.0583v2.4624h-0.61383v-2.4201q0-0.91017-0.84667-0.91017-0.62794 0-0.86783 0.35278t-0.23989 1.016v1.9614h-0.62089v-3.7818h0.50094l0.091722 0.51506h0.035278q0.18344-0.29633 0.508-0.43744 0.32456-0.14817 0.68439-0.14817z"/>
<path d="m-24.063 56.739-0.60678-1.5593h-1.9967l-0.59972 1.5593h-0.64206l1.9685-5.0588h0.5715l1.9614 5.0588zm-1.3617-3.6477q-0.02117-0.05644-0.07055-0.20461-0.04939-0.14817-0.09878-0.30339-0.04233-0.16228-0.07056-0.24694-0.04939 0.21872-0.11289 0.43039-0.0635 0.20461-0.10583 0.32456l-0.5715 1.524h1.5946z"/>
<path d="m-21.459 56.809q-0.69144 0-1.1218-0.48683-0.43039-0.49389-0.43039-1.4605 0-0.95956 0.42333-1.4676 0.42333-0.508 1.1853-0.508 0.41628 0 0.69144 0.14817 0.28222 0.14111 0.46567 0.43039h0.04233q0.03528-0.11994 0.09172-0.26106t0.13406-0.24694h0.48683q-0.04939 0.15522-0.09172 0.40922t-0.0635 0.53622q-0.02117 0.28222-0.02117 0.53622v1.4676q0 0.21872 0.08467 0.31044 0.08467 0.08467 0.20461 0.08467 0.05644 0 0.11994-0.01411 0.0635-0.01411 0.09172-0.02117v0.45156q-0.04939 0.02822-0.16228 0.05644-0.11289 0.03528-0.23283 0.03528-0.26106 0-0.43039-0.127-0.16228-0.127-0.23989-0.45156h-0.04939q-0.16228 0.23989-0.43039 0.40922t-0.74789 0.16933zm0.10583-0.51506q0.58561 0 0.8255-0.33161 0.24694-0.33867 0.24694-1.0654v-0.04233q0-0.70556-0.23283-1.0724-0.22578-0.37394-0.84667-0.37394-0.51506 0-0.762 0.37394t-0.24694 1.0866q0 0.70556 0.23989 1.0654 0.24694 0.35983 0.77611 0.35983z"/>
<path d="m-15.18 54.848q0 0.95956-0.45156 1.4605-0.4445 0.50094-1.2206 0.50094-0.28222 0-0.55033-0.07761-0.26811-0.08467-0.47272-0.23989h-0.03528q0.01411 0.11289 0.02117 0.36689 0.01411 0.254 0.01411 0.5715v1.0019h-0.62794v-3.6336q0-0.96661 0.45861-1.4393 0.45861-0.47272 1.2277-0.47272 0.47978 0 0.84667 0.22578 0.37394 0.22578 0.57856 0.66322 0.21167 0.43744 0.21167 1.0724zm-1.6651-1.4393q-1.0301 0-1.0301 1.397v1.143q0.20461 0.17639 0.46567 0.26106 0.26811 0.08467 0.55033 0.08467 0.55739 0 0.79728-0.36689 0.24694-0.36689 0.24694-1.0795 0-0.72672-0.24694-1.0795-0.23989-0.35983-0.78317-0.35983z"/>
<path d="m-10.086 52.957q0.21872 0.49389 0.3175 0.94544 0.098778 0.45156 0.098778 1.0019 0 0.56444-0.15522 0.99483t-0.45861 0.67028q-0.29633 0.23989-0.73378 0.23989-0.762 0-1.0019-0.635h-0.03528q-0.22578 0.635-0.99483 0.635-0.43744 0-0.74083-0.23989-0.29633-0.23989-0.45156-0.67028-0.15522-0.43039-0.15522-0.99483 0-0.55033 0.09878-1.0019t0.3175-0.94544h0.635q-0.21872 0.49389-0.32456 0.94544-0.10583 0.4445-0.10583 1.0089 0 0.68439 0.21167 1.0372 0.21167 0.34572 0.55739 0.34572 0.35278 0 0.51506-0.26106t0.16228-0.65617v-1.0654h0.59267v1.0654q0 0.43744 0.17639 0.67733 0.17639 0.23989 0.49389 0.23989 0.35278 0 0.56444-0.34572 0.21167-0.35278 0.21167-1.0372 0-0.56444-0.10583-1.0089-0.09878-0.45156-0.32456-0.94544zm-2.2366-0.59267q0.0635-0.17639 0.127-0.40217 0.0635-0.23283 0.11289-0.47272 0.04939-0.23989 0.07761-0.43039h0.66322v0.07761q-0.03528 0.15522-0.13406 0.39511-0.09878 0.23283-0.22578 0.48683-0.11994 0.24694-0.24694 0.4445h-0.37394z"/>
<path d="m-9.2744 52.957h0.64206l0.75494 2.0391q0.0635 0.16933 0.14111 0.40217 0.084667 0.23283 0.15522 0.45861 0.077611 0.21872 0.11289 0.35983h0.028222q0.43744-0.4445 0.67733-0.93133 0.24694-0.49389 0.34572-1.0654 0.098778-0.57856 0.098778-1.2629h0.61383q0 0.74083-0.13406 1.3829-0.127 0.635-0.45156 1.2277-0.3175 0.58561-0.90311 1.1712h-0.67028z"/>
<path d="m-12.358 70.984 0.16933-1.1712q0.07761-0.57856 0.30339-1.016 0.22578-0.43744 0.74083-0.69144-0.33161-0.41628-0.60678-0.762-0.27517-0.34572-0.45156-0.54328h0.78317q0.19756 0.23283 0.43744 0.54328 0.23989 0.31044 0.55033 0.70556 0.127 0.17639 0.26106 0.35983 0.13406 0.18344 0.27517 0.37394 0.35983-0.1905 0.52211-0.52917 0.16933-0.33867 0.21167-0.79022l0.0635-0.66322h0.64911l-0.0635 0.68439q-0.056444 0.57856-0.3175 1.0089-0.254 0.43039-0.77611 0.68439 0.30339 0.43039 0.61383 0.889 0.31044 0.45156 0.58561 0.91722h-0.74083q-0.40922-0.6985-0.84667-1.3264-0.43039-0.635-0.83961-1.1712-0.35983 0.19756-0.508 0.54328-0.14111 0.34572-0.20461 0.80433l-0.16933 1.1501z"/>
<path d="m-13.769 70.984v-2.8363q0-0.81139-0.78317-0.81139h-2.1096l0.07761-0.53622h2.0814q1.3829 0 1.3829 1.3264v2.8575zm-2.7799 0v-2.3777l0.64911-0.04939v2.4271z"/>
<path d="m-18.214 70.984v-2.8363q0-0.81139-0.77611-0.81139h-1.4534l0.07761-0.53622h1.4182q1.3829 0 1.3829 1.3264v2.8575z"/>
<path d="m-21.939 70.984v-3.6477h-0.64206l0.07761-0.53622h1.2136v4.1839z"/>
<path d="m-24.218 72.332v-4.9953h-0.64206l0.07761-0.53622h1.2136v5.4963z"/>
<path d="m-22.75 85.227-0.60678-1.5593h-1.9967l-0.59972 1.5593h-0.64206l1.9685-5.0588h0.5715l1.9614 5.0588zm-1.3617-3.6477q-0.02117-0.05644-0.07056-0.20461-0.04939-0.14817-0.09878-0.30339-0.04233-0.16228-0.07056-0.24694-0.04939 0.21872-0.11289 0.43039-0.0635 0.20461-0.10583 0.32456l-0.5715 1.524h1.5946z"/>
<path d="m-20.055 81.382q0.69144 0 1.0231 0.30339t0.33161 0.96661v2.5753h-0.45156l-0.11994-0.53622h-0.02822q-0.24694 0.31044-0.52211 0.45861-0.26811 0.14817-0.74789 0.14817-0.51506 0-0.85372-0.26811-0.33867-0.27517-0.33867-0.85372 0-0.56444 0.4445-0.86783 0.4445-0.31044 1.3688-0.33867l0.64206-0.02117v-0.22578q0-0.47272-0.20461-0.65617-0.20461-0.18344-0.57856-0.18344-0.29633 0-0.56444 0.09172-0.26811 0.08467-0.50094 0.19756l-0.1905-0.46567q0.24694-0.13406 0.58561-0.22578 0.33867-0.09878 0.70556-0.09878zm0.18344 2.0179q-0.70556 0.02822-0.98072 0.22578-0.26811 0.19756-0.26811 0.55739 0 0.3175 0.1905 0.46567 0.19756 0.14817 0.50094 0.14817 0.47978 0 0.79728-0.26106 0.3175-0.26811 0.3175-0.81844v-0.33867z"/>
<path d="m-15.765 81.375q0.10583 0 0.22578 0.01411 0.127 0.0071 0.21872 0.02822l-0.07761 0.5715q-0.09172-0.02117-0.20461-0.03528-0.10583-0.01411-0.20461-0.01411-0.28928 0-0.54328 0.16228-0.254 0.15522-0.40922 0.4445-0.14817 0.28222-0.14817 0.66322v2.0179h-0.62089v-3.7818h0.508l0.07056 0.69144h0.02822q0.18344-0.31044 0.47272-0.53622t0.68439-0.22578z"/>
<path d="m-11.469 83.329q0 0.93839-0.47978 1.4534-0.47272 0.51506-1.2841 0.51506-0.50094 0-0.89606-0.22578-0.38806-0.23283-0.61383-0.67028-0.22578-0.4445-0.22578-1.0724 0-0.93839 0.47272-1.4464 0.47272-0.508 1.2841-0.508 0.51506 0 0.90311 0.23283 0.39511 0.22578 0.61383 0.66322 0.22578 0.43039 0.22578 1.0583zm-2.8575 0q0 0.67028 0.26106 1.0654 0.26811 0.38806 0.84667 0.38806 0.5715 0 0.83961-0.38806 0.26811-0.39511 0.26811-1.0654 0-0.67028-0.26811-1.0513t-0.84667-0.381-0.83961 0.381-0.26106 1.0513zm2.1026-3.4361q-0.08467 0.127-0.26106 0.33161-0.17639 0.19756-0.381 0.40217-0.19756 0.19756-0.36689 0.32456h-0.40922v-0.08467q0.10583-0.13406 0.22578-0.3175 0.127-0.18344 0.24694-0.37394 0.11994-0.19756 0.19756-0.35278h0.74789z"/>
<path d="m-8.6676 81.375q0.67733 0 1.0231 0.33161 0.34572 0.32456 0.34572 1.0583v2.4624h-0.61383v-2.4201q0-0.91017-0.84667-0.91017-0.62794 0-0.86783 0.35278t-0.23989 1.016v1.9614h-0.62089v-3.7818h0.50094l0.091722 0.51506h0.035278q0.18344-0.29633 0.508-0.43744 0.32456-0.14817 0.68439-0.14817z"/>
<path d="m-24.931 99.467-0.60678-1.5593h-1.9967l-0.59972 1.5593h-0.64206l1.9685-5.0588h0.5715l1.9614 5.0588zm-1.3617-3.6477q-0.02117-0.05644-0.07056-0.20461-0.04939-0.14817-0.09878-0.30339-0.04233-0.16228-0.07056-0.24694-0.04939 0.21872-0.11289 0.43039-0.0635 0.20461-0.10583 0.32456l-0.5715 1.524h1.5946z"/>
<path d="m-23.047 95.678q0 0.28222-0.03528 0.52917h0.04233q0.18344-0.28928 0.49389-0.43744 0.3175-0.14817 0.68439-0.14817 0.69144 0 1.0372 0.33161 0.34572 0.32456 0.34572 1.0513v2.4624h-0.61383v-2.4201q0-0.91017-0.84667-0.91017-0.635 0-0.87489 0.35983-0.23283 0.35278-0.23283 1.016v1.9544h-0.62089v-5.3622h0.62089z"/>
<path d="m-17.875 95.622q0.69144 0 1.0231 0.30339 0.33161 0.30339 0.33161 0.96661v2.5753h-0.45156l-0.11994-0.53622h-0.02822q-0.24694 0.31044-0.52211 0.45861-0.26811 0.14817-0.74789 0.14817-0.51506 0-0.85372-0.26811-0.33867-0.27517-0.33867-0.85372 0-0.56444 0.4445-0.86783 0.4445-0.31044 1.3688-0.33867l0.64206-0.02117v-0.22577q0-0.47272-0.20461-0.65617-0.20461-0.18344-0.57856-0.18344-0.29633 0-0.56444 0.09172-0.26811 0.08467-0.50094 0.19756l-0.1905-0.46567q0.24694-0.13406 0.58561-0.22578 0.33867-0.09878 0.70556-0.09878zm0.18344 2.0179q-0.70556 0.02822-0.98072 0.22578-0.26811 0.19756-0.26811 0.55739 0 0.3175 0.1905 0.46567 0.19756 0.14817 0.50094 0.14817 0.47978 0 0.79728-0.26106 0.3175-0.26811 0.3175-0.81844v-0.33867z"/>
<path d="m-13.585 95.615q0.10583 0 0.22578 0.01411 0.127 0.0071 0.21872 0.02822l-0.07761 0.5715q-0.09172-0.02117-0.20461-0.03528-0.10583-0.01411-0.20461-0.01411-0.28928 0-0.54328 0.16228-0.254 0.15522-0.40922 0.4445-0.14817 0.28222-0.14817 0.66322v2.0179h-0.62089v-3.7818h0.508l0.07055 0.69144h0.02822q0.18344-0.31044 0.47272-0.53622 0.28928-0.22578 0.68439-0.22578z"/>
<path d="m-9.2885 97.569q0 0.93839-0.47978 1.4534-0.47272 0.51506-1.2841 0.51506-0.50094 0-0.89606-0.22578-0.38806-0.23283-0.61383-0.67028-0.22578-0.4445-0.22578-1.0724 0-0.93839 0.47272-1.4464 0.47272-0.508 1.2841-0.508 0.51506 0 0.90311 0.23283 0.39511 0.22578 0.61383 0.66322 0.22578 0.43039 0.22578 1.0583zm-2.8575 0q0 0.67028 0.26106 1.0654 0.26811 0.38806 0.84667 0.38806 0.5715 0 0.83961-0.38806 0.26811-0.39511 0.26811-1.0654t-0.26811-1.0513q-0.26811-0.381-0.84667-0.381t-0.83961 0.381q-0.26106 0.381-0.26106 1.0513z"/>
<path d="m-6.4875 95.615q0.67733 0 1.0231 0.33161 0.34572 0.32456 0.34572 1.0583v2.4624h-0.61383v-2.4201q0-0.91017-0.84667-0.91017-0.62794 0-0.86783 0.35278-0.23989 0.35278-0.23989 1.016v1.9614h-0.62089v-3.7818h0.50094l0.091722 0.51506h0.035278q0.18344-0.29633 0.508-0.43744 0.32456-0.14817 0.68439-0.14817z"/>
<path d="m-23.601 113.71-0.60678-1.5593h-1.9967l-0.59972 1.5593h-0.64206l1.9685-5.0588h0.5715l1.9614 5.0588zm-1.3617-3.6477q-0.02117-0.0564-0.07055-0.20461-0.04939-0.14816-0.09878-0.30339-0.04233-0.16227-0.07056-0.24694-0.04939 0.21872-0.11289 0.43039-0.0635 0.20461-0.10583 0.32455l-0.5715 1.524h1.5946z"/>
<path d="m-20.905 109.86q0.69144 0 1.0231 0.30339t0.33161 0.96661v2.5753h-0.45156l-0.11994-0.53622h-0.02822q-0.24694 0.31044-0.52211 0.45861-0.26811 0.14816-0.74789 0.14816-0.51506 0-0.85372-0.26811-0.33867-0.27516-0.33867-0.85372 0-0.56445 0.4445-0.86783 0.4445-0.31045 1.3688-0.33867l0.64206-0.0212v-0.22578q0-0.47272-0.20461-0.65616-0.20461-0.18345-0.57856-0.18345-0.29633 0-0.56444 0.0917-0.26811 0.0847-0.50094 0.19756l-0.1905-0.46567q0.24694-0.13405 0.58561-0.22577 0.33867-0.0988 0.70556-0.0988zm0.18344 2.0179q-0.70556 0.0282-0.98072 0.22578-0.26811 0.19755-0.26811 0.55738 0 0.31751 0.1905 0.46567 0.19756 0.14817 0.50094 0.14817 0.47978 0 0.79728-0.26106 0.3175-0.26811 0.3175-0.81844v-0.33867z"/>
<path d="m-16.58 109.85q0.6985 0 1.1218 0.48684 0.43039 0.48683 0.43039 1.4676 0 0.96661-0.43039 1.4676-0.42333 0.50094-1.1289 0.50094-0.43744 0-0.72672-0.16227-0.28222-0.16934-0.4445-0.38806h-0.04233q0.01411 0.11994 0.02822 0.30339 0.01411 0.18344 0.01411 0.3175v1.5522h-0.62089v-5.4751h0.508l0.08467 0.51505h0.02822q0.16933-0.24694 0.4445-0.41627 0.27517-0.16934 0.73378-0.16934zm-0.11289 0.52211q-0.57856 0-0.81844 0.32456-0.23283 0.32455-0.24694 0.98778v0.11994q0 0.6985 0.22578 1.0795 0.23283 0.37395 0.85372 0.37395 0.34572 0 0.56444-0.1905 0.22578-0.1905 0.33161-0.51506 0.11289-0.33161 0.11289-0.75494 0-0.64911-0.254-1.0372-0.24694-0.38806-0.76906-0.38806z"/>
<path d="m-10.753 111.81q0 0.93839-0.47978 1.4534-0.47272 0.51505-1.2841 0.51505-0.50094 0-0.89606-0.22577-0.38806-0.23284-0.61383-0.67028-0.22578-0.4445-0.22578-1.0724 0-0.93839 0.47272-1.4464 0.47272-0.508 1.2841-0.508 0.51506 0 0.90311 0.23284 0.39511 0.22577 0.61383 0.66322 0.22578 0.43039 0.22578 1.0583zm-2.8575 0q0 0.67028 0.26106 1.0654 0.26811 0.38806 0.84667 0.38806 0.5715 0 0.83961-0.38806 0.26811-0.39511 0.26811-1.0654t-0.26811-1.0513q-0.26811-0.381-0.84667-0.381t-0.83961 0.381q-0.26106 0.381-0.26106 1.0513z"/>
<path d="m-9.1509 109.93v1.5734h2.0532v-1.5734h0.62089v3.7818h-0.62089v-1.6863h-2.0532v1.6863h-0.62089v-3.7818z"/>
<path d="m-22.549 127.95-0.60678-1.5593h-1.9967l-0.59972 1.5593h-0.64206l1.9685-5.0588h0.5715l1.9614 5.0588zm-1.3617-3.6477q-0.02117-0.0564-0.07056-0.20461-0.04939-0.14817-0.09878-0.30339-0.04233-0.16228-0.07056-0.24695-0.04939 0.21873-0.11289 0.43039-0.0635 0.20461-0.10583 0.32456l-0.5715 1.524h1.5946z"/>
<path d="m-19.854 124.1q0.69144 0 1.0231 0.30339 0.33161 0.30339 0.33161 0.96661v2.5753h-0.45156l-0.11994-0.53622h-0.02822q-0.24694 0.31044-0.52211 0.45861-0.26811 0.14817-0.74789 0.14817-0.51506 0-0.85372-0.26811-0.33867-0.27517-0.33867-0.85373 0-0.56444 0.4445-0.86783 0.4445-0.31044 1.3688-0.33867l0.64206-0.0212v-0.22578q0-0.47272-0.20461-0.65617-0.20461-0.18344-0.57856-0.18344-0.29633 0-0.56444 0.0917-0.26811 0.0847-0.50094 0.19755l-0.1905-0.46566q0.24694-0.13406 0.58561-0.22578 0.33867-0.0988 0.70556-0.0988zm0.18344 2.0179q-0.70556 0.0282-0.98072 0.22578-0.26811 0.19756-0.26811 0.55739 0 0.3175 0.1905 0.46567 0.19756 0.14816 0.50094 0.14816 0.47978 0 0.79728-0.26105 0.3175-0.26811 0.3175-0.81845v-0.33866z"/>
<path d="m-15.564 124.09q0.10583 0 0.22578 0.0141 0.127 7e-3 0.21872 0.0282l-0.07761 0.5715q-0.09172-0.0212-0.20461-0.0353-0.10583-0.0141-0.20461-0.0141-0.28928 0-0.54328 0.16228-0.254 0.15522-0.40922 0.4445-0.14817 0.28222-0.14817 0.66322v2.0179h-0.62089v-3.7818h0.508l0.07055 0.69145h0.02822q0.18344-0.31045 0.47272-0.53623 0.28928-0.22577 0.68439-0.22577z"/>
<path d="m-13.123 124.1q0.69144 0 1.0231 0.30339t0.33161 0.96661v2.5753h-0.45156l-0.11994-0.53622h-0.02822q-0.24694 0.31044-0.52211 0.45861-0.26811 0.14817-0.74789 0.14817-0.51506 0-0.85372-0.26811-0.33867-0.27517-0.33867-0.85373 0-0.56444 0.4445-0.86783 0.4445-0.31044 1.3688-0.33867l0.64206-0.0212v-0.22578q0-0.47272-0.20461-0.65617-0.20461-0.18344-0.57856-0.18344-0.29633 0-0.56444 0.0917-0.26811 0.0847-0.50094 0.19755l-0.1905-0.46566q0.24694-0.13406 0.58561-0.22578 0.33867-0.0988 0.70556-0.0988zm0.18344 2.0179q-0.70556 0.0282-0.98072 0.22578-0.26811 0.19756-0.26811 0.55739 0 0.3175 0.1905 0.46567 0.19756 0.14816 0.50094 0.14816 0.47978 0 0.79728-0.26105 0.3175-0.26811 0.3175-0.81845v-0.33866zm-1.5311-2.4483q0.04233-0.41628 0.23989-0.65616 0.20461-0.24695 0.53622-0.24695 0.21167 0 0.39511 0.10583 0.1905 0.0988 0.35983 0.19756 0.16933 0.0988 0.3175 0.0988 0.16228 0 0.24694-0.0988 0.09172-0.10583 0.14111-0.31044h0.35278q-0.04233 0.40922-0.23989 0.65616-0.19756 0.24695-0.52917 0.24695-0.19756 0-0.38806-0.0988-0.18344-0.0988-0.35983-0.19756-0.16933-0.10583-0.32456-0.10583-0.16933 0-0.254 0.10583-0.08467 0.0988-0.13406 0.30339z"/>
<path d="m-7.3094 126.05q0 0.93839-0.47978 1.4534-0.47272 0.51506-1.2841 0.51506-0.50094 0-0.89606-0.22578-0.38806-0.23283-0.61383-0.67028-0.22578-0.4445-0.22578-1.0724 0-0.93839 0.47272-1.4464 0.47272-0.508 1.2841-0.508 0.51506 0 0.90311 0.23283 0.39511 0.22578 0.61383 0.66322 0.22578 0.43039 0.22578 1.0583zm-2.8575 0q0 0.67027 0.26106 1.0654 0.26811 0.38805 0.84667 0.38805 0.5715 0 0.83961-0.38805 0.26811-0.39512 0.26811-1.0654 0-0.67028-0.26811-1.0513-0.26811-0.381-0.84667-0.381-0.57856 0-0.83961 0.381-0.26106 0.381-0.26106 1.0513z"/>
<path d="m-28.441 142.26q-0.43744 0-0.79728-0.16228-0.35278-0.16228-0.56444-0.47978-0.20461-0.3175-0.20461-0.79022 0-0.15522 0.02822-0.29633 0.03528-0.14817 0.0635-0.23284h0.59267q-0.02822 0.0917-0.04939 0.23284-0.01411 0.13405-0.01411 0.29633 0 0.45156 0.254 0.68439 0.26106 0.23283 0.69144 0.23283t0.67733-0.23989q0.24694-0.23989 0.24694-0.71261 0-0.36689-0.15522-0.59267-0.15522-0.23283-0.35983-0.43038-0.16933-0.16934-0.33867-0.35278-0.16228-0.1905-0.27517-0.43039-0.11289-0.24695-0.11289-0.57856h0.62089q0 0.30339 0.16228 0.53622 0.16933 0.22578 0.38806 0.44451 0.17639 0.16933 0.33867 0.36688 0.16228 0.19756 0.26811 0.45156 0.10583 0.24694 0.10583 0.58561 0 0.43745-0.20461 0.76906t-0.55739 0.51505q-0.35278 0.18345-0.80433 0.18345z"/>
<path d="m-24.567 142.26q-0.43744 0-0.79728-0.16228-0.35278-0.16228-0.56444-0.47978-0.20461-0.3175-0.20461-0.79022 0-0.15522 0.02822-0.29633 0.03528-0.14817 0.0635-0.23284h0.59267q-0.02822 0.0917-0.04939 0.23284-0.01411 0.13405-0.01411 0.29633 0 0.45156 0.254 0.68439 0.26106 0.23283 0.69144 0.23283t0.67733-0.23989 0.24694-0.71261q0-0.36689-0.15522-0.59267-0.15522-0.23283-0.35983-0.43038-0.16933-0.16934-0.33867-0.35278-0.16228-0.1905-0.27517-0.43039-0.11289-0.24695-0.11289-0.57856h0.62089q0 0.30339 0.16228 0.53622 0.16933 0.22578 0.38806 0.44451 0.17639 0.16933 0.33867 0.36688 0.16228 0.19756 0.26811 0.45156 0.10583 0.24694 0.10583 0.58561 0 0.43745-0.20461 0.76906-0.20461 0.33161-0.55739 0.51505-0.35278 0.18345-0.80433 0.18345z"/>
<path d="m-21.809 142.19q-0.21872-0.49389-0.3175-0.94544-0.09878-0.45156-0.09878-1.0019v-0.26811q0-1.3053 0.46567-2.0179 0.46567-0.71262 1.4041-0.91017 0.39511-0.0847 0.79022-0.15522 0.39511-0.0706 0.77611-0.13406l0.10583 0.54328q-0.24694 0.0353-0.54328 0.0847-0.28928 0.0423-0.55739 0.0917-0.26811 0.0423-0.45156 0.0847-0.28928 0.0635-0.56444 0.19756-0.27517 0.127-0.49389 0.37395-0.21167 0.24694-0.34572 0.67733h0.02117q0.20461-0.29633 0.41628-0.381 0.21167-0.0917 0.43744-0.0917 0.35983 0 0.59972 0.18344 0.23989 0.17639 0.35278 0.48683h0.03528q0.11994-0.31044 0.37394-0.48683 0.254-0.18344 0.62794-0.18344 0.47272 0 0.79022 0.23989 0.3175 0.23988 0.47978 0.67027 0.16228 0.42334 0.16228 0.99484 0 0.55033-0.10583 1.0019-0.10583 0.45155-0.32456 0.94544h-0.635q0.22578-0.50094 0.32456-0.94544 0.10583-0.45156 0.10583-1.009 0-0.68439-0.21872-1.0301-0.21872-0.35278-0.62794-0.35278-0.3175 0-0.49389 0.23989t-0.17639 0.67734v1.1359h-0.59267v-1.1359q0-0.39512-0.16228-0.65617-0.16228-0.26106-0.51506-0.26106-0.40217 0-0.62089 0.35278-0.21872 0.34572-0.21872 1.0301 0 0.55739 0.10583 1.009 0.10583 0.4445 0.32456 0.94544z"/>
<path d="m-16.136 142.19q-0.21872-0.49389-0.32456-0.94544-0.10583-0.45156-0.10583-1.0019 0-0.5715 0.16228-0.99484 0.16228-0.43039 0.47978-0.67027 0.3175-0.23989 0.79022-0.23989 0.39511 0 0.635 0.18344 0.24694 0.17639 0.35983 0.48683h0.03528q0.11994-0.31044 0.37394-0.48683 0.254-0.18344 0.62794-0.18344 0.47272 0 0.79022 0.23989 0.3175 0.23988 0.47978 0.67027 0.16228 0.42334 0.16228 0.99484 0 0.55033-0.10583 1.0019-0.10583 0.45155-0.32456 0.94544h-0.635q0.22578-0.50094 0.32456-0.94544 0.10583-0.45156 0.10583-1.009 0-0.68439-0.21872-1.0301-0.21872-0.35278-0.62794-0.35278-0.3175 0-0.49389 0.23989t-0.17639 0.67734v1.1359h-0.59267v-1.1359q0-0.39512-0.16228-0.65617-0.16228-0.26106-0.51506-0.26106-0.40217 0-0.62089 0.35278-0.21872 0.34572-0.21872 1.0301 0 0.55739 0.10583 1.009 0.10583 0.4445 0.32456 0.94544z"/>
<path d="m-9.0804 142.26q-0.81139 0-1.2418-0.48684-0.43039-0.49388-0.43039-1.4676v-2.1943q0-0.45861 0.16933-0.74084 0.16933-0.28222 0.45156-0.40922 0.28928-0.13405 0.64911-0.13405h1.6651v0.52211h-1.5804q-0.33867 0-0.53622 0.16933-0.19756 0.16228-0.19756 0.5715v0.24695q0 0.10583-0.01411 0.28927-0.01411 0.17639-0.02822 0.26812h0.04233q0.17639-0.23284 0.45156-0.39512 0.28222-0.16227 0.71967-0.16227 0.70556 0 1.1289 0.50094 0.43039 0.49389 0.43039 1.4676t-0.46567 1.4676q-0.46567 0.48684-1.2136 0.48684zm0-0.51506q0.52917 0 0.78317-0.37394 0.254-0.37395 0.254-1.0513 0-0.67028-0.254-1.0654-0.24694-0.40217-0.74789-0.40217-0.41628 0-0.65617 0.16934-0.23989 0.16227-0.33867 0.47272-0.09878 0.30339-0.09878 0.73378v0.19755q0 0.59972 0.23989 0.95956 0.23989 0.35983 0.81844 0.35983z"/>
<path d="m-6.1947 142.19q-0.21872-0.49389-0.32456-0.94544-0.10583-0.45156-0.10583-1.0019 0-0.86784 0.41628-1.3829 0.42333-0.52211 1.2206-0.52211 0.81139 0 1.2206 0.52211 0.41628 0.51505 0.41628 1.3829 0 0.55033-0.10583 1.0019-0.10583 0.45155-0.32456 0.94544h-0.635q0.22578-0.50094 0.32456-0.94544 0.10583-0.45156 0.10583-1.009 0-0.68439-0.26811-1.0301-0.26106-0.35278-0.73378-0.35278-0.47272 0-0.74083 0.35278-0.26106 0.34572-0.26106 1.0301 0 0.55739 0.10583 1.009 0.10583 0.4445 0.32456 0.94544z"/>
<path d="m-23.661 156.43-0.60678-1.5593h-1.9967l-0.59972 1.5593h-0.64206l1.9685-5.0588h0.5715l1.9614 5.0588zm-1.3617-3.6477q-0.02117-0.0564-0.07056-0.20461-0.04939-0.14817-0.09878-0.30339-0.04233-0.16228-0.07055-0.24694-0.04939 0.21872-0.11289 0.43039-0.0635 0.20461-0.10583 0.32455l-0.5715 1.524h1.5946z"/>
<path d="m-20.965 152.58q0.69144 0 1.0231 0.30339 0.33161 0.30338 0.33161 0.96661v2.5753h-0.45156l-0.11994-0.53623h-0.02822q-0.24694 0.31045-0.52211 0.45862-0.26811 0.14816-0.74789 0.14816-0.51506 0-0.85372-0.26811-0.33867-0.27517-0.33867-0.85372 0-0.56445 0.4445-0.86784 0.4445-0.31044 1.3688-0.33866l0.64206-0.0212v-0.22578q0-0.47272-0.20461-0.65616-0.20461-0.18345-0.57856-0.18345-0.29633 0-0.56444 0.0917-0.26811 0.0847-0.50094 0.19756l-0.1905-0.46567q0.24694-0.13405 0.58561-0.22578 0.33867-0.0988 0.70556-0.0988zm0.18344 2.0179q-0.70556 0.0282-0.98072 0.22577-0.26811 0.19756-0.26811 0.55739 0 0.3175 0.1905 0.46567 0.19756 0.14817 0.50094 0.14817 0.47978 0 0.79728-0.26106 0.3175-0.26811 0.3175-0.81844v-0.33867z"/>
<path d="m-16.676 152.58q0.10583 0 0.22578 0.0141 0.127 7e-3 0.21872 0.0282l-0.07761 0.5715q-0.09172-0.0212-0.20461-0.0353-0.10583-0.0141-0.20461-0.0141-0.28928 0-0.54328 0.16227-0.254 0.15523-0.40922 0.4445-0.14817 0.28223-0.14817 0.66323v2.0179h-0.62089v-3.7818h0.508l0.07055 0.69144h0.02822q0.18344-0.31044 0.47272-0.53622t0.68439-0.22578z"/>
<path d="m-12.379 154.53q0 0.93839-0.47978 1.4534-0.47272 0.51505-1.2841 0.51505-0.50094 0-0.89606-0.22578-0.38806-0.23283-0.61383-0.67027-0.22578-0.4445-0.22578-1.0724 0-0.93839 0.47272-1.4464 0.47272-0.508 1.2841-0.508 0.51506 0 0.90311 0.23283 0.39511 0.22578 0.61383 0.66323 0.22578 0.43039 0.22578 1.0583zm-2.8575 0q0 0.67028 0.26106 1.0654 0.26811 0.38806 0.84667 0.38806 0.5715 0 0.83961-0.38806 0.26811-0.39511 0.26811-1.0654t-0.26811-1.0513-0.84667-0.381-0.83961 0.381-0.26106 1.0513z"/>
<path d="m-9.5778 152.58q0.67733 0 1.0231 0.33161 0.34572 0.32456 0.34572 1.0583v2.4624h-0.61383v-2.4201q0-0.91017-0.84667-0.91017-0.62795 0-0.86783 0.35278t-0.23989 1.016v1.9614h-0.62089v-3.7818h0.50094l0.09172 0.51505h0.03528q0.18344-0.29633 0.508-0.43744 0.32456-0.14817 0.68439-0.14817z"/>
<path d="m-6.7203 151.23q0.14111 0 0.24694 0.0988 0.11289 0.0917 0.11289 0.29633 0 0.19756-0.11289 0.29633-0.10583 0.0988-0.24694 0.0988-0.15522 0-0.26106-0.0988t-0.10583-0.29633q0-0.20461 0.10583-0.29633 0.10583-0.0988 0.26106-0.0988zm0.30339 1.4182v3.7818h-0.62089v-3.7818z"/>
<path d="m-24.73 170.67-0.60678-1.5593h-1.9967l-0.59972 1.5593h-0.64206l1.9685-5.0588h0.5715l1.9614 5.0588zm-1.3617-3.6477q-0.02117-0.0565-0.07056-0.20461-0.04939-0.14817-0.09878-0.30339-0.04233-0.16228-0.07056-0.24695-0.04939 0.21872-0.11289 0.43039-0.0635 0.20461-0.10583 0.32456l-0.5715 1.524h1.5946z"/>
<path d="m-22.034 166.82q0.69144 0 1.0231 0.30339t0.33161 0.96661v2.5753h-0.45156l-0.11994-0.53622h-0.02822q-0.24694 0.31044-0.52211 0.45861-0.26811 0.14817-0.74789 0.14817-0.51506 0-0.85372-0.26811-0.33867-0.27517-0.33867-0.85373 0-0.56444 0.4445-0.86783 0.4445-0.31045 1.3688-0.33867l0.64206-0.0212v-0.22578q0-0.47273-0.20461-0.65617t-0.57856-0.18344q-0.29633 0-0.56444 0.0917-0.26811 0.0847-0.50094 0.19755l-0.1905-0.46566q0.24694-0.13406 0.58561-0.22578 0.33867-0.0988 0.70556-0.0988zm0.18344 2.0179q-0.70556 0.0282-0.98072 0.22578-0.26811 0.19755-0.26811 0.55739 0 0.3175 0.1905 0.46567 0.19756 0.14816 0.50094 0.14816 0.47978 0 0.79728-0.26105 0.3175-0.26812 0.3175-0.81845v-0.33867z"/>
<path d="m-17.745 166.82q0.10583 0 0.22578 0.0141 0.127 7e-3 0.21872 0.0282l-0.07761 0.5715q-0.09172-0.0212-0.20461-0.0353-0.10583-0.0141-0.20461-0.0141-0.28928 0-0.54328 0.16228-0.254 0.15522-0.40922 0.4445-0.14817 0.28222-0.14817 0.66322v2.0179h-0.62089v-3.7818h0.508l0.07056 0.69145h0.02822q0.18344-0.31045 0.47272-0.53623 0.28928-0.22577 0.68439-0.22577z"/>
<path d="m-13.448 168.77q0 0.93838-0.47978 1.4534-0.47272 0.51506-1.2841 0.51506-0.50094 0-0.89606-0.22578-0.38806-0.23283-0.61383-0.67028-0.22578-0.4445-0.22578-1.0724 0-0.93839 0.47272-1.4464 0.47272-0.508 1.2841-0.508 0.51506 0 0.90311 0.23283 0.39511 0.22578 0.61383 0.66322 0.22578 0.43039 0.22578 1.0583zm-2.8575 0q0 0.67027 0.26106 1.0654 0.26811 0.38805 0.84667 0.38805 0.5715 0 0.83961-0.38805 0.26811-0.39512 0.26811-1.0654 0-0.67028-0.26811-1.0513-0.26811-0.381-0.84667-0.381t-0.83961 0.381q-0.26106 0.381-0.26106 1.0513z"/>
<path d="m-10.647 166.82q0.67733 0 1.0231 0.33161 0.34572 0.32455 0.34572 1.0583v2.4624h-0.61383v-2.4201q0-0.91016-0.84667-0.91016-0.62794 0-0.86783 0.35277-0.23989 0.35278-0.23989 1.016v1.9614h-0.62089v-3.7818h0.50094l0.09172 0.51506h0.03528q0.18344-0.29634 0.508-0.43745 0.32456-0.14816 0.68439-0.14816z"/>
<path d="m-6.6744 166.82q0.69144 0 1.0231 0.30339t0.33161 0.96661v2.5753h-0.45156l-0.11994-0.53622h-0.028222q-0.24694 0.31044-0.52211 0.45861-0.26811 0.14817-0.74789 0.14817-0.51506 0-0.85372-0.26811-0.33867-0.27517-0.33867-0.85373 0-0.56444 0.4445-0.86783 0.4445-0.31045 1.3688-0.33867l0.64206-0.0212v-0.22578q0-0.47273-0.20461-0.65617t-0.57856-0.18344q-0.29633 0-0.56444 0.0917-0.26811 0.0847-0.50094 0.19755l-0.1905-0.46566q0.24694-0.13406 0.58561-0.22578 0.33867-0.0988 0.70556-0.0988zm0.18344 2.0179q-0.70556 0.0282-0.98072 0.22578-0.26811 0.19755-0.26811 0.55739 0 0.3175 0.1905 0.46567 0.19756 0.14816 0.50094 0.14816 0.47978 0 0.79728-0.26105 0.3175-0.26812 0.3175-0.81845v-0.33867z"/>
<path d="m-22.75 184.91-0.60678-1.5593h-1.9967l-0.59972 1.5593h-0.64206l1.9685-5.0588h0.5715l1.9614 5.0588zm-1.3617-3.6477q-0.02117-0.0564-0.07056-0.20461-0.04939-0.14817-0.09878-0.30339-0.04233-0.16228-0.07056-0.24694-0.04939 0.21872-0.11289 0.43039-0.0635 0.20461-0.10583 0.32455l-0.5715 1.524h1.5946z"/>
<path d="m-20.055 181.06q0.69144 0 1.0231 0.30338 0.33161 0.30339 0.33161 0.96662v2.5753h-0.45156l-0.11994-0.53623h-0.02822q-0.24694 0.31045-0.52211 0.45861-0.26811 0.14817-0.74789 0.14817-0.51506 0-0.85372-0.26811-0.33867-0.27517-0.33867-0.85372 0-0.56445 0.4445-0.86784 0.4445-0.31044 1.3688-0.33866l0.64206-0.0212v-0.22578q0-0.47272-0.20461-0.65617-0.20461-0.18344-0.57856-0.18344-0.29633 0-0.56444 0.0917-0.26811 0.0847-0.50094 0.19756l-0.1905-0.46567q0.24694-0.13405 0.58561-0.22578 0.33867-0.0988 0.70556-0.0988zm0.18344 2.0179q-0.70556 0.0282-0.98072 0.22577-0.26811 0.19756-0.26811 0.55739 0 0.3175 0.1905 0.46567 0.19756 0.14817 0.50094 0.14817 0.47978 0 0.79728-0.26106 0.3175-0.26811 0.3175-0.81844v-0.33867zm-1.2277-2.9774q0-0.18345 0.09878-0.26106 0.09878-0.0847 0.23283-0.0847 0.13406 0 0.23283 0.0847 0.09878 0.0776 0.09878 0.26106 0 0.17639-0.09878 0.26811-0.09878 0.0847-0.23283 0.0847-0.13406 0-0.23283-0.0847-0.09878-0.0917-0.09878-0.26811zm1.3264 0q0-0.18345 0.09172-0.26106 0.09878-0.0847 0.23283-0.0847 0.13406 0 0.23283 0.0847 0.09878 0.0776 0.09878 0.26106 0 0.17639-0.09878 0.26811-0.09878 0.0847-0.23283 0.0847-0.13406 0-0.23283-0.0847-0.09172-0.0917-0.09172-0.26811z"/>
<path d="m-15.765 181.06q0.10583 0 0.22578 0.0141 0.127 7e-3 0.21872 0.0282l-0.07761 0.5715q-0.09172-0.0212-0.20461-0.0353-0.10583-0.0141-0.20461-0.0141-0.28928 0-0.54328 0.16228-0.254 0.15522-0.40922 0.4445-0.14817 0.28223-0.14817 0.66323v2.0179h-0.62089v-3.7818h0.508l0.07056 0.69144h0.02822q0.18344-0.31044 0.47272-0.53622t0.68439-0.22578z"/>
<path d="m-11.469 183.01q0 0.93839-0.47978 1.4534-0.47272 0.51505-1.2841 0.51505-0.50094 0-0.89606-0.22578-0.38806-0.23283-0.61383-0.67027-0.22578-0.44451-0.22578-1.0724 0-0.93839 0.47272-1.4464 0.47272-0.508 1.2841-0.508 0.51506 0 0.90311 0.23283 0.39511 0.22578 0.61383 0.66323 0.22578 0.43039 0.22578 1.0583zm-2.8575 0q0 0.67028 0.26106 1.0654 0.26811 0.38806 0.84667 0.38806 0.5715 0 0.83961-0.38806 0.26811-0.39511 0.26811-1.0654t-0.26811-1.0513-0.84667-0.381-0.83961 0.381-0.26106 1.0513z"/>
<path d="m-8.6676 181.06q0.67733 0 1.0231 0.33161 0.34572 0.32456 0.34572 1.0583v2.4624h-0.61383v-2.4201q0-0.91017-0.84667-0.91017-0.62794 0-0.86783 0.35278t-0.23989 1.016v1.9614h-0.62089v-3.7818h0.50094l0.091722 0.51505h0.035278q0.18344-0.29633 0.508-0.43744 0.32456-0.14817 0.68439-0.14817z"/>
<path d="m-23.527 199.15-0.60678-1.5593h-1.9967l-0.59972 1.5593h-0.64206l1.9685-5.0588h0.5715l1.9614 5.0588zm-1.3617-3.6477q-0.02117-0.0564-0.07056-0.20462-0.04939-0.14816-0.09878-0.30338-0.04233-0.16228-0.07056-0.24695-0.04939 0.21872-0.11289 0.43039-0.0635 0.20461-0.10583 0.32456l-0.5715 1.524h1.5946z"/>
<path d="m-20.831 195.3q0.69144 0 1.0231 0.30339t0.33161 0.96661v2.5753h-0.45156l-0.11994-0.53622h-0.02822q-0.24694 0.31044-0.52211 0.45861-0.26811 0.14817-0.74789 0.14817-0.51506 0-0.85372-0.26812-0.33867-0.27516-0.33867-0.85372 0-0.56444 0.4445-0.86783 0.4445-0.31045 1.3688-0.33867l0.64206-0.0212v-0.22577q0-0.47273-0.20461-0.65617-0.20461-0.18345-0.57856-0.18345-0.29633 0-0.56444 0.0917-0.26811 0.0847-0.50094 0.19755l-0.1905-0.46566q0.24694-0.13406 0.58561-0.22578 0.33867-0.0988 0.70556-0.0988zm0.18344 2.0179q-0.70556 0.0282-0.98072 0.22578-0.26811 0.19755-0.26811 0.55739 0 0.3175 0.1905 0.46566 0.19756 0.14817 0.50094 0.14817 0.47978 0 0.79728-0.26105 0.3175-0.26812 0.3175-0.81845v-0.33867z"/>
<path d="m-17.685 199.15h-0.62089v-5.3622h0.62089z"/>
<path d="m-15.758 195.3q0.50094 0 0.87489 0.19756 0.37394 0.1905 0.58561 0.60678t0.21167 1.0866q0 0.6985-0.23989 1.1501-0.23283 0.45156-0.635 0.67028-0.39511 0.21167-0.89606 0.21167-0.30339 0-0.53622-0.0565-0.22578-0.0494-0.41628-0.14817v-0.55033q0.19756 0.0917 0.43039 0.15522 0.23283 0.0635 0.52917 0.0635 0.56444 0 0.83961-0.381 0.28222-0.381 0.28222-1.0866 0-0.70556-0.26811-1.0442-0.26106-0.33866-0.8255-0.33866-0.19756 0-0.43744 0.0494-0.23283 0.0494-0.40217 0.13405l-0.1905-0.51505q0.16933-0.0847 0.46567-0.14112 0.30339-0.0635 0.62794-0.0635z"/>
<path d="m-14.7 193.81q-0.08467 0.127-0.26106 0.33161-0.17639 0.19755-0.37394 0.40216-0.20461 0.19756-0.37394 0.32456h-0.40922v-0.0847q0.10583-0.13405 0.23283-0.3175 0.11994-0.18344 0.23989-0.37394 0.11994-0.19756 0.19756-0.35278h0.74789z"/>
<path d="m-12.372 195.3q0.50094 0 0.87489 0.19756 0.37394 0.1905 0.58561 0.60678 0.21167 0.41628 0.21167 1.0866 0 0.6985-0.23989 1.1501-0.23283 0.45156-0.635 0.67028-0.39511 0.21167-0.89606 0.21167-0.30339 0-0.53622-0.0565-0.22578-0.0494-0.41628-0.14817v-0.55033q0.19756 0.0917 0.43039 0.15522 0.23283 0.0635 0.52917 0.0635 0.56444 0 0.83961-0.381 0.28222-0.381 0.28222-1.0866 0-0.70556-0.26811-1.0442-0.26106-0.33866-0.8255-0.33866-0.19756 0-0.43744 0.0494-0.23283 0.0494-0.40217 0.13405l-0.1905-0.51505q0.16933-0.0847 0.46567-0.14112 0.30339-0.0635 0.62794-0.0635z"/>
<path d="m-7.8915 195.3q0.67733 0 1.0231 0.33162 0.34572 0.32455 0.34572 1.0583v2.4624h-0.61383v-2.4201q0-0.91016-0.84667-0.91016-0.62794 0-0.86783 0.35277-0.23989 0.35278-0.23989 1.016v1.9614h-0.62089v-3.7818h0.50094l0.091722 0.51506h0.035278q0.18344-0.29634 0.508-0.43745 0.32456-0.14817 0.68439-0.14817z"/>
<path d="m-24.885 213.39-0.60678-1.5593h-1.9967l-0.59972 1.5593h-0.64206l1.9685-5.0588h0.5715l1.9614 5.0588zm-1.3617-3.6477q-0.02117-0.0564-0.07056-0.20461-0.04939-0.14817-0.09878-0.30339-0.04233-0.16228-0.07055-0.24695-0.04939 0.21873-0.11289 0.43039-0.0635 0.20462-0.10583 0.32456l-0.5715 1.524h1.5946z"/>
<path d="m-22.19 209.54q0.69144 0 1.0231 0.30339 0.33161 0.30339 0.33161 0.96661v2.5753h-0.45156l-0.11994-0.53622h-0.02822q-0.24694 0.31045-0.52211 0.45861-0.26811 0.14817-0.74789 0.14817-0.51506 0-0.85372-0.26811-0.33867-0.27517-0.33867-0.85372 0-0.56445 0.4445-0.86784 0.4445-0.31044 1.3688-0.33866l0.64206-0.0212v-0.22578q0-0.47272-0.20461-0.65617-0.20461-0.18344-0.57856-0.18344-0.29633 0-0.56444 0.0917-0.26811 0.0847-0.50094 0.19756l-0.1905-0.46567q0.24694-0.13406 0.58561-0.22578 0.33867-0.0988 0.70556-0.0988zm0.18344 2.0179q-0.70556 0.0282-0.98072 0.22578-0.26811 0.19756-0.26811 0.55739 0 0.3175 0.1905 0.46567 0.19756 0.14817 0.50094 0.14817 0.47978 0 0.79728-0.26106 0.3175-0.26811 0.3175-0.81845v-0.33866z"/>
<path d="m-17.9 209.54q0.10583 0 0.22578 0.0141 0.127 7e-3 0.21872 0.0282l-0.07761 0.5715q-0.09172-0.0212-0.20461-0.0353-0.10583-0.0141-0.20461-0.0141-0.28928 0-0.54328 0.16228-0.254 0.15522-0.40922 0.4445-0.14817 0.28222-0.14817 0.66322v2.0179h-0.62089v-3.7818h0.508l0.07055 0.69145h0.02822q0.18344-0.31045 0.47272-0.53622 0.28928-0.22578 0.68439-0.22578z"/>
<path d="m-13.603 211.49q0 0.93839-0.47978 1.4534-0.47272 0.51506-1.2841 0.51506-0.50094 0-0.89606-0.22578-0.38806-0.23283-0.61383-0.67028-0.22578-0.4445-0.22578-1.0724 0-0.93839 0.47272-1.4464 0.47272-0.508 1.2841-0.508 0.51506 0 0.90311 0.23283 0.39511 0.22578 0.61383 0.66322 0.22578 0.43039 0.22578 1.0583zm-2.8575 0q0 0.67028 0.26106 1.0654 0.26811 0.38805 0.84667 0.38805 0.5715 0 0.83961-0.38805 0.26811-0.39511 0.26811-1.0654t-0.26811-1.0513q-0.26811-0.381-0.84667-0.381-0.57856 0-0.83961 0.381t-0.26106 1.0513z"/>
<path d="m-10.802 209.54q0.67733 0 1.0231 0.33161 0.34572 0.32456 0.34572 1.0583v2.4624h-0.61383v-2.42q0-0.91017-0.84667-0.91017-0.62794 0-0.86783 0.35278t-0.23989 1.016v1.9614h-0.62089v-3.7818h0.50094l0.09172 0.51506h0.03528q0.18344-0.29633 0.508-0.43744 0.32456-0.14817 0.68439-0.14817z"/>
<path d="m-4.974 211.49q0 0.93839-0.47978 1.4534-0.47272 0.51506-1.2841 0.51506-0.50094 0-0.89606-0.22578-0.38806-0.23283-0.61383-0.67028-0.22578-0.4445-0.22578-1.0724 0-0.93839 0.47272-1.4464 0.47272-0.508 1.2841-0.508 0.51506 0 0.90311 0.23283 0.39511 0.22578 0.61383 0.66322 0.22578 0.43039 0.22578 1.0583zm-2.8575 0q0 0.67028 0.26106 1.0654 0.26811 0.38805 0.84667 0.38805 0.5715 0 0.83961-0.38805 0.26811-0.39511 0.26811-1.0654t-0.26811-1.0513-0.84667-0.381-0.83961 0.381q-0.26106 0.381-0.26106 1.0513z"/>
<path d="m-26.624 227.7q-0.91722 0-1.4111-0.49389t-0.49389-1.3688v-3.2456h0.635v3.1538q0 0.73378 0.33161 1.0795 0.33867 0.33867 0.95956 0.33867 0.61383 0 0.94544-0.33867 0.33867-0.34572 0.33867-1.0372v-3.1962h0.635v3.2597q0 0.11289-0.0071 0.22578 0.07055-0.0141 0.15522-0.0141 0.52211 0 0.79728 0.29633 0.28222 0.28928 0.28222 0.94545v0.32455h-0.56444v-0.28927q0-0.43745-0.15522-0.60678-0.15522-0.17639-0.45156-0.17639-0.09172 0-0.16228 7e-3 -0.18344 0.54328-0.65617 0.83962-0.46567 0.29633-1.1783 0.29633z"/>
<path d="m-21.502 227.69q-0.55739 0-0.889-0.3175-0.33161-0.3175-0.33161-0.9525v-2.2648h0.62794v2.1449q0 0.4445 0.20461 0.66322 0.21167 0.21167 0.53622 0.21167 0.43744 0 0.6985-0.30339 0.26811-0.30339 0.26811-0.94545v-1.7709h0.62794v2.1449q0 0.4445 0.20461 0.66322 0.21167 0.21167 0.53622 0.21167 0.41628 0 0.68439-0.30339 0.27517-0.30339 0.27517-0.94545v-1.7709h0.62794v3.4713h-0.48683l-0.08467-0.56444h-0.03528q-0.127 0.24694-0.40217 0.43744-0.26811 0.1905-0.72672 0.1905-0.38806 0-0.67733-0.16227-0.28928-0.16228-0.41628-0.48684h-0.03528q-0.13406 0.28223-0.45861 0.46567-0.32456 0.18344-0.74789 0.18344z"/>
<path d="m-16.196 229.3v-5.1364h0.49389l0.07761 0.61383h0.03528q0.14111-0.28222 0.42333-0.47978 0.28928-0.20461 0.73378-0.20461 0.58561 0 0.91722 0.33161 0.33161 0.33162 0.33161 0.99484v2.2154h-0.62794v-2.0955q0-0.47977-0.21167-0.70555-0.20461-0.22578-0.55739-0.22578-0.4445 0-0.71967 0.33161-0.26811 0.32456-0.26811 0.99483v3.3655z"/>
<path d="m-11.984 227.63v-3.4713h0.49389l0.07761 0.61383h0.03528q0.14111-0.28222 0.42333-0.47978 0.28928-0.20461 0.73378-0.20461 0.58561 0 0.91722 0.33161 0.33161 0.33162 0.33161 0.99484v2.2154h-0.62794v-2.0955q0-0.47977-0.21167-0.70555-0.20461-0.22578-0.55739-0.22578-0.4445 0-0.71967 0.33161-0.26811 0.32456-0.26811 0.99483v1.7004z"/>
<path d="m-6.431 223.75v0.15522q-0.3175 0.49389-0.508 0.88194-0.1905 0.38806-0.28222 0.72673-0.084667 0.33866-0.084667 0.67733 0 0.55033 0.23283 0.77611 0.23989 0.21872 0.66322 0.21872 0.4445 0 0.71967-0.33161 0.28222-0.33866 0.28222-1.0019v-1.6933h0.62794v3.4713h-0.49389l-0.077611-0.61383h-0.042333q-0.13406 0.28222-0.42333 0.48683-0.28222 0.19756-0.72672 0.19756-0.66322 0-1.0372-0.381-0.36689-0.381-0.36689-1.0866 0-0.3175 0.077611-0.635 0.084667-0.32455 0.28222-0.70555 0.19756-0.38806 0.54328-0.87489l-0.37394-0.21872q-0.49389-0.28928-0.49389-0.68439 0-0.21167 0.13406-0.45862l0.21872-0.40922 0.48683 0.23989-0.15522 0.26106q-0.091722 0.15522-0.091722 0.28927 0 0.23989 0.30339 0.40217z"/>
<path d="m-24.74 241.87-0.60678-1.5593h-1.9967l-0.59972 1.5593h-0.64206l1.9685-5.0588h0.5715l1.9614 5.0588zm-1.3617-3.6477q-0.02117-0.0564-0.07056-0.20461-0.04939-0.14816-0.09878-0.30339-0.04233-0.16227-0.07056-0.24694-0.04939 0.21872-0.11289 0.43039-0.0635 0.20461-0.10583 0.32455l-0.5715 1.524h1.5946z"/>
<path d="m-22.045 238.03q0.69144 0 1.0231 0.30339 0.33161 0.30339 0.33161 0.96661v2.5753h-0.45156l-0.11994-0.53622h-0.02822q-0.24694 0.31044-0.52211 0.45861-0.26811 0.14816-0.74789 0.14816-0.51506 0-0.85372-0.26811-0.33867-0.27516-0.33867-0.85372 0-0.56444 0.4445-0.86783 0.4445-0.31045 1.3688-0.33867l0.64206-0.0212v-0.22577q0-0.47273-0.20461-0.65617-0.20461-0.18345-0.57856-0.18345-0.29633 0-0.56444 0.0917-0.26811 0.0847-0.50094 0.19755l-0.1905-0.46567q0.24694-0.13405 0.58561-0.22577 0.33867-0.0988 0.70556-0.0988zm0.18344 2.0179q-0.70556 0.0282-0.98072 0.22578-0.26811 0.19755-0.26811 0.55739 0 0.3175 0.1905 0.46566 0.19756 0.14817 0.50094 0.14817 0.47978 0 0.79728-0.26106 0.3175-0.26811 0.3175-0.81844v-0.33867z"/>
<path d="m-17.755 238.02q0.10583 0 0.22578 0.0141 0.127 7e-3 0.21872 0.0282l-0.07761 0.5715q-0.09172-0.0212-0.20461-0.0353-0.10583-0.0141-0.20461-0.0141-0.28928 0-0.54328 0.16228-0.254 0.15522-0.40922 0.4445-0.14817 0.28222-0.14817 0.66322v2.0179h-0.62089v-3.7818h0.508l0.07056 0.69144h0.02822q0.18344-0.31044 0.47272-0.53622t0.68439-0.22578z"/>
<path d="m-13.458 239.97q0 0.93839-0.47978 1.4534-0.47272 0.51505-1.2841 0.51505-0.50094 0-0.89606-0.22577-0.38806-0.23284-0.61383-0.67028-0.22578-0.4445-0.22578-1.0724 0-0.93839 0.47272-1.4464t1.2841-0.508q0.51506 0 0.90311 0.23284 0.39511 0.22577 0.61383 0.66322 0.22578 0.43039 0.22578 1.0583zm-2.8575 0q0 0.67028 0.26106 1.0654 0.26811 0.38806 0.84667 0.38806 0.5715 0 0.83961-0.38806 0.26811-0.39511 0.26811-1.0654t-0.26811-1.0513-0.84667-0.381-0.83961 0.381-0.26106 1.0513z"/>
<path d="m-10.657 238.02q0.67733 0 1.0231 0.33161 0.34572 0.32456 0.34572 1.0583v2.4624h-0.61383v-2.4201q0-0.91017-0.84667-0.91017-0.62794 0-0.86783 0.35278t-0.23989 1.016v1.9614h-0.62089v-3.7818h0.50094l0.09172 0.51505h0.03528q0.18344-0.29633 0.508-0.43744 0.32456-0.14817 0.68439-0.14817z"/>
<path d="m-6.6568 238.02q0.48683 0 0.83256 0.21167 0.35278 0.21167 0.53622 0.59972 0.1905 0.381 0.1905 0.89606v0.37394h-2.5894q0.014111 0.64206 0.32456 0.98073 0.3175 0.33161 0.88194 0.33161 0.35983 0 0.635-0.0635 0.28222-0.0706 0.57856-0.19756v0.54328q-0.28928 0.127-0.5715 0.18344-0.28222 0.0635-0.67028 0.0635-0.53622 0-0.9525-0.21872-0.40922-0.21872-0.64206-0.64911-0.22578-0.43744-0.22578-1.0654 0-0.62089 0.20461-1.0654 0.21167-0.4445 0.58561-0.68439 0.381-0.23989 0.88195-0.23989zm-0.00706 0.508q-0.4445 0-0.70556 0.28928-0.254 0.28222-0.30339 0.79022h1.9262q-0.00706-0.47977-0.22578-0.77611-0.21872-0.30339-0.69144-0.30339z"/>
<path d="m-22.38 256.11-0.60678-1.5593h-1.9967l-0.59972 1.5593h-0.64206l1.9685-5.0588h0.5715l1.9614 5.0588zm-1.3617-3.6477q-0.02117-0.0565-0.07055-0.20461-0.04939-0.14817-0.09878-0.30339-0.04233-0.16228-0.07056-0.24695-0.04939 0.21873-0.11289 0.43039-0.0635 0.20461-0.10583 0.32456l-0.5715 1.524h1.5946z"/>
<path d="m-19.685 252.27q0.69144 0 1.0231 0.30339t0.33161 0.96661v2.5753h-0.45156l-0.11994-0.53622h-0.02822q-0.24694 0.31045-0.52211 0.45861-0.26811 0.14817-0.74789 0.14817-0.51506 0-0.85372-0.26811-0.33867-0.27517-0.33867-0.85373 0-0.56444 0.4445-0.86783 0.4445-0.31044 1.3688-0.33867l0.64206-0.0212v-0.22578q0-0.47272-0.20461-0.65617-0.20461-0.18344-0.57856-0.18344-0.29633 0-0.56444 0.0917-0.26811 0.0847-0.50094 0.19756l-0.1905-0.46567q0.24694-0.13406 0.58561-0.22578 0.33867-0.0988 0.70556-0.0988zm0.18344 2.0179q-0.70556 0.0282-0.98072 0.22578-0.26811 0.19756-0.26811 0.55739 0 0.3175 0.1905 0.46567 0.19756 0.14816 0.50094 0.14816 0.47978 0 0.79728-0.26105 0.3175-0.26811 0.3175-0.81845v-0.33866z"/>
<path d="m-15.395 252.26q0.10583 0 0.22578 0.0141 0.127 7e-3 0.21872 0.0282l-0.07761 0.5715q-0.09172-0.0212-0.20461-0.0353-0.10583-0.0141-0.20461-0.0141-0.28928 0-0.54328 0.16228-0.254 0.15522-0.40922 0.4445-0.14817 0.28222-0.14817 0.66322v2.0179h-0.62089v-3.7818h0.508l0.07056 0.69145h0.02822q0.18344-0.31045 0.47272-0.53622 0.28928-0.22578 0.68439-0.22578z"/>
<path d="m-13.518 252.26q0.50094 0 0.87489 0.19755 0.37394 0.1905 0.58561 0.60678 0.21167 0.41628 0.21167 1.0866 0 0.6985-0.23989 1.15-0.23283 0.45156-0.635 0.67028-0.39511 0.21167-0.89606 0.21167-0.30339 0-0.53622-0.0564-0.22578-0.0494-0.41628-0.14816v-0.55034q0.19756 0.0917 0.43039 0.15523 0.23283 0.0635 0.52917 0.0635 0.56444 0 0.83961-0.381 0.28222-0.381 0.28222-1.0866t-0.26811-1.0442q-0.26106-0.33867-0.8255-0.33867-0.19756 0-0.43744 0.0494-0.23283 0.0494-0.40217 0.13405l-0.1905-0.51505q0.16933-0.0847 0.46567-0.14111 0.30339-0.0635 0.62794-0.0635z"/>
<path d="m-9.038 252.26q0.67733 0 1.0231 0.33161 0.34572 0.32455 0.34572 1.0583v2.4624h-0.61383v-2.42q0-0.91017-0.84667-0.91017-0.62794 0-0.86783 0.35278-0.23989 0.35277-0.23989 1.016v1.9614h-0.62089v-3.7818h0.50094l0.09172 0.51506h0.03528q0.18344-0.29633 0.508-0.43745 0.32456-0.14816 0.68439-0.14816z"/>
<path d="m-26.419 270.35-0.60678-1.5593h-1.9967l-0.59972 1.5593h-0.64206l1.9685-5.0588h0.5715l1.9614 5.0588zm-1.3617-3.6477q-0.02117-0.0564-0.07056-0.20461-0.04939-0.14816-0.09878-0.30339-0.04233-0.16228-0.07056-0.24694-0.04939 0.21872-0.11289 0.43039-0.0635 0.20461-0.10583 0.32455l-0.5715 1.524h1.5946z"/>
<path d="m-23.724 266.51q0.69144 0 1.0231 0.30339 0.33161 0.30339 0.33161 0.96661v2.5753h-0.45156l-0.11994-0.53622h-0.02822q-0.24694 0.31044-0.52211 0.45861-0.26811 0.14816-0.74789 0.14816-0.51506 0-0.85372-0.26811-0.33867-0.27516-0.33867-0.85372 0-0.56445 0.4445-0.86783 0.4445-0.31045 1.3688-0.33867l0.64206-0.0212v-0.22578q0-0.47272-0.20461-0.65616-0.20461-0.18345-0.57856-0.18345-0.29633 0-0.56444 0.0917-0.26811 0.0847-0.50094 0.19756l-0.1905-0.46567q0.24694-0.13405 0.58561-0.22577 0.33867-0.0988 0.70556-0.0988zm0.18344 2.0179q-0.70556 0.0282-0.98072 0.22578-0.26811 0.19755-0.26811 0.55738 0 0.3175 0.1905 0.46567 0.19756 0.14817 0.50094 0.14817 0.47978 0 0.79728-0.26106 0.3175-0.26811 0.3175-0.81844v-0.33867z"/>
<path d="m-19.434 266.5q0.10583 0 0.22578 0.0141 0.127 7e-3 0.21872 0.0282l-0.07761 0.5715q-0.09172-0.0212-0.20461-0.0353-0.10583-0.0141-0.20461-0.0141-0.28928 0-0.54328 0.16227-0.254 0.15523-0.40922 0.4445-0.14817 0.28223-0.14817 0.66323v2.0179h-0.62089v-3.7818h0.508l0.07056 0.69144h0.02822q0.18344-0.31044 0.47272-0.53622t0.68439-0.22578z"/>
<path d="m-15.138 268.45q0 0.93839-0.47978 1.4534-0.47272 0.51505-1.2841 0.51505-0.50094 0-0.89606-0.22577-0.38806-0.23284-0.61383-0.67028-0.22578-0.4445-0.22578-1.0724 0-0.93839 0.47272-1.4464t1.2841-0.508q0.51506 0 0.90311 0.23284 0.39511 0.22577 0.61383 0.66322 0.22578 0.43039 0.22578 1.0583zm-2.8575 0q0 0.67028 0.26106 1.0654 0.26811 0.38806 0.84667 0.38806 0.5715 0 0.83961-0.38806 0.26811-0.39511 0.26811-1.0654t-0.26811-1.0513-0.84667-0.381-0.83961 0.381-0.26106 1.0513z"/>
<path d="m-12.337 266.5q0.67733 0 1.0231 0.33161 0.34572 0.32456 0.34572 1.0583v2.4624h-0.61383v-2.4201q0-0.91017-0.84667-0.91017-0.62794 0-0.86783 0.35278t-0.23989 1.016v1.9614h-0.62089v-3.7818h0.50094l0.09172 0.51505h0.03528q0.18344-0.29633 0.508-0.43744 0.32456-0.14817 0.68439-0.14817z"/>
<path d="m-8.3642 266.51q0.69144 0 1.0231 0.30339 0.33161 0.30339 0.33161 0.96661v2.5753h-0.45156l-0.11994-0.53622h-0.028222q-0.24694 0.31044-0.52211 0.45861-0.26811 0.14816-0.74789 0.14816-0.51506 0-0.85372-0.26811-0.33867-0.27516-0.33867-0.85372 0-0.56445 0.4445-0.86783 0.4445-0.31045 1.3688-0.33867l0.64206-0.0212v-0.22578q0-0.47272-0.20461-0.65616-0.20461-0.18345-0.57856-0.18345-0.29633 0-0.56444 0.0917-0.26811 0.0847-0.50094 0.19756l-0.1905-0.46567q0.24694-0.13405 0.58561-0.22577 0.33867-0.0988 0.70556-0.0988zm0.18344 2.0179q-0.70556 0.0282-0.98072 0.22578-0.26811 0.19755-0.26811 0.55738 0 0.3175 0.1905 0.46567 0.19756 0.14817 0.50094 0.14817 0.47978 0 0.79728-0.26106 0.3175-0.26811 0.3175-0.81844v-0.33867z"/>
<path d="m-3.376 269.31q0 0.55034-0.40922 0.83256t-1.1007 0.28222q-0.39511 0-0.68439-0.0635-0.28222-0.0635-0.50094-0.17639v-0.56444q0.22578 0.11289 0.54328 0.21167 0.32456 0.0917 0.65617 0.0917 0.47272 0 0.68439-0.14817 0.21167-0.15522 0.21167-0.40922 0-0.14111-0.077611-0.254t-0.28222-0.22578q-0.19756-0.11289-0.5715-0.254-0.36689-0.14111-0.62794-0.28222t-0.40217-0.33867q-0.14111-0.19755-0.14111-0.508 0-0.47978 0.38806-0.74083 0.39511-0.26106 1.0301-0.26106 0.34572 0 0.64206 0.0706 0.30339 0.0635 0.56444 0.18344l-0.21167 0.49389q-0.23989-0.0988-0.50094-0.16933-0.26106-0.0706-0.53622-0.0706-0.381 0-0.58561 0.127-0.19756 0.11995-0.19756 0.33161 0 0.15523 0.091722 0.26811 0.091722 0.10584 0.30339 0.21167 0.21872 0.0988 0.57856 0.23989 0.35983 0.13406 0.61383 0.27517 0.254 0.14111 0.38806 0.34572 0.13406 0.19756 0.13406 0.50094z"/>
<path d="m-26.663 284.59-0.60678-1.5593h-1.9967l-0.59972 1.5593h-0.64206l1.9685-5.0588h0.5715l1.9614 5.0588zm-1.3617-3.6477q-0.02117-0.0564-0.07056-0.20461-0.04939-0.14817-0.09878-0.30339-0.04233-0.16228-0.07055-0.24695-0.04939 0.21872-0.11289 0.43039-0.0635 0.20461-0.10583 0.32456l-0.5715 1.524h1.5946z"/>
<path d="m-24.504 282.66-1.3053-1.8486h0.70556l0.97367 1.4252 0.96661-1.4252h0.6985l-1.3053 1.8486 1.3758 1.9332h-0.70556l-1.0301-1.5099-1.0442 1.5099h-0.6985z"/>
<path d="m-20.165 284.59h-1.8203v-0.36689l0.59267-0.13405v-4.0287l-0.59267-0.14111v-0.36689h1.8203v0.36689l-0.59267 0.14111v4.0287l0.59267 0.13405z"/>
<path d="m-17.843 280.75q0.69144 0 1.0231 0.30339 0.33161 0.30339 0.33161 0.96661v2.5753h-0.45156l-0.11994-0.53622h-0.02822q-0.24694 0.31044-0.52211 0.45861-0.26811 0.14817-0.74789 0.14817-0.51506 0-0.85372-0.26811-0.33867-0.27517-0.33867-0.85373 0-0.56444 0.4445-0.86783 0.4445-0.31044 1.3688-0.33867l0.64206-0.0212v-0.22578q0-0.47272-0.20461-0.65617-0.20461-0.18344-0.57856-0.18344-0.29633 0-0.56444 0.0917-0.26811 0.0847-0.50094 0.19755l-0.1905-0.46566q0.24694-0.13406 0.58561-0.22578 0.33867-0.0988 0.70556-0.0988zm0.18344 2.0179q-0.70556 0.0282-0.98072 0.22578-0.26811 0.19756-0.26811 0.55739 0 0.3175 0.1905 0.46567 0.19756 0.14816 0.50094 0.14816 0.47978 0 0.79728-0.26105 0.3175-0.26811 0.3175-0.81845v-0.33866z"/>
<path d="m-13.518 280.74q0.6985 0 1.1218 0.48683 0.43039 0.48683 0.43039 1.4676 0 0.96661-0.43039 1.4676-0.42333 0.50095-1.1289 0.50095-0.43744 0-0.72672-0.16228-0.28222-0.16933-0.4445-0.38806h-0.04233q0.01411 0.11995 0.02822 0.30339 0.01411 0.18345 0.01411 0.3175v1.5522h-0.62089v-5.4751h0.508l0.08467 0.51506h0.02822q0.16933-0.24695 0.4445-0.41628 0.27517-0.16933 0.73378-0.16933zm-0.11289 0.52211q-0.57856 0-0.81844 0.32455-0.23283 0.32456-0.24694 0.98778v0.11995q0 0.6985 0.22578 1.0795 0.23283 0.37394 0.85372 0.37394 0.34572 0 0.56444-0.1905 0.22578-0.1905 0.33161-0.51505 0.11289-0.33162 0.11289-0.75495 0-0.64911-0.254-1.0372-0.24694-0.38805-0.76906-0.38805z"/>
<path d="m-7.6904 282.69q0 0.93839-0.47978 1.4534-0.47272 0.51506-1.2841 0.51506-0.50094 0-0.89606-0.22578-0.38806-0.23283-0.61383-0.67028-0.22578-0.4445-0.22578-1.0724 0-0.93839 0.47272-1.4464 0.47272-0.508 1.2841-0.508 0.51506 0 0.90311 0.23283 0.39511 0.22578 0.61383 0.66322 0.22578 0.43039 0.22578 1.0583zm-2.8575 0q0 0.67027 0.26106 1.0654 0.26811 0.38805 0.84667 0.38805 0.5715 0 0.83961-0.38805 0.26811-0.39512 0.26811-1.0654 0-0.67028-0.26811-1.0513t-0.84667-0.381-0.83961 0.381q-0.26106 0.381-0.26106 1.0513z"/>
<path d="m-6.0888 280.81v1.5734h2.0532v-1.5734h0.62089v3.7818h-0.62089v-1.6863h-2.0532v1.6863h-0.62089v-3.7818z"/>
<path d="m-22.75 298.83-0.60678-1.5593h-1.9967l-0.59972 1.5593h-0.64206l1.9685-5.0588h0.5715l1.9614 5.0588zm-1.3617-3.6477q-0.02117-0.0564-0.07056-0.20461-0.04939-0.14817-0.09878-0.30339-0.04233-0.16228-0.07056-0.24694-0.04939 0.21872-0.11289 0.43039-0.0635 0.20461-0.10583 0.32455l-0.5715 1.524h1.5946z"/>
<path d="m-20.055 294.99q0.69144 0 1.0231 0.30339 0.33161 0.30338 0.33161 0.96661v2.5753h-0.45156l-0.11994-0.53623h-0.02822q-0.24694 0.31045-0.52211 0.45862-0.26811 0.14816-0.74789 0.14816-0.51506 0-0.85372-0.26811-0.33867-0.27517-0.33867-0.85372 0-0.56445 0.4445-0.86784 0.4445-0.31044 1.3688-0.33866l0.64206-0.0212v-0.22578q0-0.47272-0.20461-0.65616-0.20461-0.18345-0.57856-0.18345-0.29633 0-0.56444 0.0917-0.26811 0.0847-0.50094 0.19756l-0.1905-0.46567q0.24694-0.13405 0.58561-0.22578 0.33867-0.0988 0.70556-0.0988zm0.18344 2.0179q-0.70556 0.0282-0.98072 0.22577-0.26811 0.19756-0.26811 0.55739 0 0.3175 0.1905 0.46567 0.19756 0.14817 0.50094 0.14817 0.47978 0 0.79728-0.26106 0.3175-0.26811 0.3175-0.81844v-0.33867z"/>
<path d="m-15.765 294.98q0.10583 0 0.22578 0.0141 0.127 7e-3 0.21872 0.0282l-0.07761 0.5715q-0.09172-0.0212-0.20461-0.0353-0.10583-0.0141-0.20461-0.0141-0.28928 0-0.54328 0.16227-0.254 0.15523-0.40922 0.4445-0.14817 0.28223-0.14817 0.66323v2.0179h-0.62089v-3.7818h0.508l0.07056 0.69144h0.02822q0.18344-0.31044 0.47272-0.53622t0.68439-0.22578z"/>
<path d="m-11.469 296.93q0 0.93839-0.47978 1.4534-0.47272 0.51505-1.2841 0.51505-0.50094 0-0.89606-0.22578-0.38806-0.23283-0.61383-0.67027-0.22578-0.4445-0.22578-1.0724 0-0.93839 0.47272-1.4464 0.47272-0.508 1.2841-0.508 0.51506 0 0.90311 0.23283 0.39511 0.22578 0.61383 0.66323 0.22578 0.43039 0.22578 1.0583zm-2.8575 0q0 0.67028 0.26106 1.0654 0.26811 0.38806 0.84667 0.38806 0.5715 0 0.83961-0.38806 0.26811-0.39511 0.26811-1.0654t-0.26811-1.0513-0.84667-0.381-0.83961 0.381-0.26106 1.0513z"/>
<path d="m-8.6676 294.98q0.67733 0 1.0231 0.33161 0.34572 0.32456 0.34572 1.0583v2.4624h-0.61383v-2.4201q0-0.91017-0.84667-0.91017-0.62794 0-0.86783 0.35278t-0.23989 1.016v1.9614h-0.62089v-3.7818h0.50094l0.091722 0.51505h0.035278q0.18344-0.29633 0.508-0.43744 0.32456-0.14817 0.68439-0.14817z"/>
</g>
</svg>
